<mxfile host="app.diagrams.net" modified="2021-11-29T09:51:32.246Z" agent="5.0 (Windows NT 10.0; Win64; x64) AppleWebKit/537.36 (KHTML, like Gecko) Chrome/96.0.4664.45 Safari/537.36" etag="xNwPZwMrYlauO5L8HdWw" version="15.8.6" type="github">
  <diagram id="OzW74qGJpEnz0POAGJQZ" name="Page-1">
    <mxGraphModel dx="1038" dy="579" grid="1" gridSize="10" guides="1" tooltips="1" connect="1" arrows="1" fold="1" page="1" pageScale="1" pageWidth="850" pageHeight="1100" math="0" shadow="0">
      <root>
        <mxCell id="0" />
        <mxCell id="1" parent="0" />
        <mxCell id="0GLeODi4kRlB6aAdMmZP-1" value="" style="endArrow=classic;html=1;rounded=0;strokeWidth=4;" edge="1" parent="1">
          <mxGeometry width="50" height="50" relative="1" as="geometry">
            <mxPoint x="70" y="180" as="sourcePoint" />
            <mxPoint x="730" y="180" as="targetPoint" />
          </mxGeometry>
        </mxCell>
        <mxCell id="0GLeODi4kRlB6aAdMmZP-2" value="&lt;font style=&quot;font-size: 15px&quot;&gt;5h &lt;br&gt;Bắt đầu &lt;br&gt;chạy&lt;/font&gt;" style="edgeLabel;html=1;align=center;verticalAlign=middle;resizable=0;points=[];" vertex="1" connectable="0" parent="0GLeODi4kRlB6aAdMmZP-1">
          <mxGeometry x="-0.7933" y="-1" relative="1" as="geometry">
            <mxPoint as="offset" />
          </mxGeometry>
        </mxCell>
        <mxCell id="0GLeODi4kRlB6aAdMmZP-4" value="8h&lt;br&gt;Máy bán &lt;br&gt;vé hư" style="edgeLabel;html=1;align=center;verticalAlign=middle;resizable=0;points=[];fontSize=15;" vertex="1" connectable="0" parent="0GLeODi4kRlB6aAdMmZP-1">
          <mxGeometry x="-0.4036" y="2" relative="1" as="geometry">
            <mxPoint x="13" as="offset" />
          </mxGeometry>
        </mxCell>
        <mxCell id="0GLeODi4kRlB6aAdMmZP-6" value="21h30 &lt;br&gt;Kết thúc&amp;nbsp;" style="edgeLabel;html=1;align=center;verticalAlign=middle;resizable=0;points=[];fontSize=15;" vertex="1" connectable="0" parent="0GLeODi4kRlB6aAdMmZP-1">
          <mxGeometry x="0.7327" y="1" relative="1" as="geometry">
            <mxPoint as="offset" />
          </mxGeometry>
        </mxCell>
        <mxCell id="0GLeODi4kRlB6aAdMmZP-5" value="" style="endArrow=classic;startArrow=classic;html=1;rounded=0;fontSize=15;strokeWidth=2;" edge="1" parent="1">
          <mxGeometry width="50" height="50" relative="1" as="geometry">
            <mxPoint x="280" y="260" as="sourcePoint" />
            <mxPoint x="640" y="260" as="targetPoint" />
          </mxGeometry>
        </mxCell>
        <mxCell id="0GLeODi4kRlB6aAdMmZP-12" value="Bán vé tay" style="edgeLabel;html=1;align=center;verticalAlign=middle;resizable=0;points=[];fontSize=15;" vertex="1" connectable="0" parent="0GLeODi4kRlB6aAdMmZP-5">
          <mxGeometry x="0.06" y="3" relative="1" as="geometry">
            <mxPoint as="offset" />
          </mxGeometry>
        </mxCell>
        <mxCell id="0GLeODi4kRlB6aAdMmZP-7" value="" style="endArrow=classic;startArrow=classic;html=1;rounded=0;fontSize=15;strokeWidth=2;" edge="1" parent="1">
          <mxGeometry width="50" height="50" relative="1" as="geometry">
            <mxPoint x="130" y="230" as="sourcePoint" />
            <mxPoint x="280" y="230" as="targetPoint" />
          </mxGeometry>
        </mxCell>
        <mxCell id="0GLeODi4kRlB6aAdMmZP-11" value="Bán vé &lt;br&gt;điện tử" style="edgeLabel;html=1;align=center;verticalAlign=middle;resizable=0;points=[];fontSize=15;" vertex="1" connectable="0" parent="0GLeODi4kRlB6aAdMmZP-7">
          <mxGeometry x="0.0711" y="-1" relative="1" as="geometry">
            <mxPoint as="offset" />
          </mxGeometry>
        </mxCell>
        <mxCell id="0GLeODi4kRlB6aAdMmZP-14" value="" style="endArrow=none;html=1;rounded=0;fontSize=15;strokeWidth=2;fillColor=#e51400;strokeColor=#FF0000;" edge="1" parent="1">
          <mxGeometry width="50" height="50" relative="1" as="geometry">
            <mxPoint x="130" y="280" as="sourcePoint" />
            <mxPoint x="280" y="130" as="targetPoint" />
          </mxGeometry>
        </mxCell>
        <mxCell id="0GLeODi4kRlB6aAdMmZP-15" value="" style="endArrow=none;html=1;rounded=0;fontSize=15;strokeWidth=2;fillColor=#e51400;strokeColor=#FF0000;" edge="1" parent="1">
          <mxGeometry width="50" height="50" relative="1" as="geometry">
            <mxPoint x="270" y="280" as="sourcePoint" />
            <mxPoint x="130" y="130" as="targetPoint" />
          </mxGeometry>
        </mxCell>
      </root>
    </mxGraphModel>
  </diagram>
</mxfile>
